# xmcd
# 
# Track frame offsets:
#     150
#     6040
#     19047
#     47605
#     62707
#     93852
#     114987
#     149920
#     184447
#     216140
#     234877
# 
# Disc length: 3852
# 
# Revision: 1
# Processed by: cddbd v1.5.2PL0 Copyright (c) Steve Scherf et al.
# Submitted via: BonkEnc v1.0.15
# 
DISCID=910f0a0b
DTITLE=Isaac Hayes - Branded
DYEAR=1995
DGENRE=
TTITLE0=Ike's Plea
TTITLE1=Life's Mood
TTITLE2=Fragile
TTITLE3=Life's Mood Ii
TTITLE4=Summer In The City
TTITLE5=Let Me Love You
TTITLE6=I'll Do Anything (To Turn You On)
TTITLE7=Thanks To The Fool
TTITLE8=Branded
TTITLE9=Soulsville
TTITLE10=Hyperbolicsyllabicsesquedalymistic
EXTD=
EXTT0=
EXTT1=
EXTT2=
EXTT3=
EXTT4=
EXTT5=
EXTT6=
EXTT7=
EXTT8=
EXTT9=
EXTT10=
PLAYORDER=
